<?xml version="1.0" standalone="no"?>
<!DOCTYPE svg PUBLIC "-//W3C//DTD SVG 1.1//EN" "http://www.w3.org/Graphics/SVG/1.1/DTD/svg11.dtd" >
<svg xmlns="http://www.w3.org/2000/svg" xmlns:xlink="http://www.w3.org/1999/xlink" version="1.1">
<metadata></metadata>
<defs>
<font id="minimalregular" horiz-adv-x="874" >
<font-face units-per-em="2048" ascent="1536" descent="-512" />
<missing-glyph horiz-adv-x="1024" />
<glyph horiz-adv-x="0" />
<glyph horiz-adv-x="682" />
<glyph unicode=" "  horiz-adv-x="1024" />
<glyph unicode="&#x09;" horiz-adv-x="1024" />
<glyph unicode="&#xa0;" horiz-adv-x="1024" />
<glyph unicode="!" horiz-adv-x="253" d="M63 61q0 55 64 64q24 0 43 -19q15 -15 18 -45q0 -52 -61 -61q-64 0 -64 61zM92 276v1024h66v-1024h-66z" />
<glyph unicode="&#x22;" horiz-adv-x="258" d="M41 1073v193h57v-193h-57zM150 1073v193h59v-193h-59z" />
<glyph unicode="#" horiz-adv-x="1138" d="M59 287l11 43l206 -4l78 348l-207 2l11 43l204 -4l66 291l61 -2l-65 -289l340 -6l67 290l60 -2l-66 -288l209 -4l-10 -41l-209 2l-78 -347l209 -2l-10 -43l-207 2l-61 -268l-60 2l60 269l-340 4l-62 -269l-59 2l59 269zM336 326l342 -4l78 346l-342 4z" />
<glyph unicode="$" horiz-adv-x="829" d="M47 295h64q0 -115 80.5 -180.5t195.5 -75.5v582q-38 9 -61.5 15.5t-59.5 18t-58.5 24t-50.5 30.5t-45.5 40.5t-33.5 51.5t-23.5 66t-7.5 81q0 142 99.5 228.5t240.5 97.5v119h62v-117q131 -6 223 -76q114 -86 114 -237h-63q0 117 -90 186q-75 57 -184 63v-542 q59 -14 100.5 -28.5t90 -43.5t78.5 -66.5t50 -98t20 -138.5q0 -153 -118 -242q-90 -69 -221 -78v-116h-62v116q-141 10 -240.5 94.5t-99.5 225.5zM111 948q0 -54 15 -94.5t36.5 -66t61.5 -46t73.5 -31t89.5 -24.5v524q-115 -11 -195.5 -80.5t-80.5 -181.5zM449 39 q108 9 182 65q94 72 94 191q0 63 -14.5 111t-37.5 79t-61.5 54.5t-74 37t-88.5 27.5v-565z" />
<glyph unicode="'" horiz-adv-x="141" d="M41 1067v193h59v-193h-59z" />
<glyph unicode="(" horiz-adv-x="303" d="M57 504q0 373 136 739h57q-44 -116 -62 -196q-27 -104 -45 -226q-16 -123 -20 -174q-8 -71 -8 -145q0 -380 135 -740h-57q-18 50 -33 93q-26 87 -29 98q-1 4 -3.5 16.5t-4.5 20.5q-1 9 -4.5 29t-5.5 30q-3 9 -11 49q-12 52 -16 78q-11 65 -23 174q-6 82 -6 154z" />
<glyph unicode=")" horiz-adv-x="315" d="M49 -238q39 111 62 199q33 143 45 221q16 119 20 172q8 71 8 150q0 367 -135 739h57q73 -194 111 -420q14 -98 19 -161q6 -76 6 -160q0 -388 -136 -740h-57z" />
<glyph unicode="*" horiz-adv-x="428" d="M49 1092l12 30l138 -45v148h34v-148l140 45l8 -30l-139 -45l88 -119l-29 -19l-86 117l-84 -117l-29 21l86 117z" />
<glyph unicode="+" horiz-adv-x="550" d="M49 436v70h187v186h77v-186h185v-70h-185v-184h-77v184h-187z" />
<glyph unicode="," horiz-adv-x="303" d="M53 -154l133 291l58 -24l-172 -279z" />
<glyph unicode="-" horiz-adv-x="444" d="M33 500v69h379v-69h-379z" />
<glyph unicode="." horiz-adv-x="186" d="M33 57q0 46 57 58q42 0 57 -58q0 -57 -57 -57q-20 0 -39 16q-15 15 -18 41z" />
<glyph unicode="/" horiz-adv-x="534" d="M39 2l381 1321h65l-376 -1321h-70z" />
<glyph unicode="0" horiz-adv-x="980" d="M59 635q0 177 57.5 328t157.5 239t218 88q117 0 216 -88t156.5 -239t57.5 -328q0 -178 -57.5 -329.5t-156.5 -240t-216 -88.5q-118 0 -218 88.5t-157.5 240t-57.5 329.5zM123 635q0 -161 49.5 -297.5t134.5 -215.5t185 -79q99 0 183.5 79t133.5 215.5t49 297.5 q0 160 -49 296.5t-133.5 216t-183.5 79.5q-100 0 -185 -79.5t-134.5 -216t-49.5 -296.5z" />
<glyph unicode="1" horiz-adv-x="536" d="M43 868l367 365h69v-1229h-55v1153l-336 -321z" />
<glyph unicode="2" horiz-adv-x="878" d="M51 1024q52 102 149.5 163.5t215.5 61.5q167 0 286 -119t119 -286q0 -91 -53 -178.5t-121 -155.5q-30 -30 -152 -144.5t-229 -213.5l-106 -99h661v-51h-755v39l548 514q152 152 152 289q0 145 -102.5 247.5t-247.5 102.5q-94 0 -174.5 -46t-126.5 -124h-64z" />
<glyph unicode="3" horiz-adv-x="800" d="M33 258h57q20 -102 102.5 -170t190.5 -68q123 0 211 87.5t88 211.5q0 123 -86.5 210t-208.5 89h-8q-8 0 -12 -2v58h20q110 1 188 80.5t78 189.5q0 113 -79 193t-191 80q-80 0 -146 -42.5t-100 -113.5h-59q36 94 119 152.5t186 58.5q135 0 231.5 -96.5t96.5 -231.5 q0 -97 -53.5 -177.5t-139.5 -119.5q98 -40 158.5 -129.5t60.5 -198.5q0 -148 -104 -252t-250 -104q-131 0 -229.5 84.5t-120.5 210.5z" />
<glyph unicode="4" horiz-adv-x="811" d="M45 365l539 866h59v-811h135v-55h-135v-363h-55v363h-543zM145 420h443v713z" />
<glyph unicode="5" horiz-adv-x="868" d="M47 182h64q47 -76 127 -122t174 -46q145 0 247.5 102.5t102.5 248.5q0 145 -102.5 247.5t-247.5 102.5q-43 0 -71.5 -2.5t-54.5 -11t-38 -14.5t-44 -25.5t-52 -30.5v596h503v-51h-448v-459q92 53 205 53q167 0 286 -119t119 -286q0 -169 -119 -288.5t-286 -119.5 q-118 0 -215.5 61.5t-149.5 163.5z" />
<glyph unicode="6" horiz-adv-x="913" d="M49 373q0 121 64 219l350 659l57 -30l-262 -490q95 53 203 53q169 0 289 -120.5t120 -290.5t-120 -291t-289 -121q-170 0 -291 121t-121 291zM113 373q0 -143 102 -244.5t246 -101.5q143 0 244.5 101.5t101.5 244.5t-101.5 244.5t-244.5 101.5q-144 0 -246 -101.5 t-102 -244.5z" />
<glyph unicode="7" horiz-adv-x="755" d="M33 1174v55h667l-290 -1229h-58l279 1174h-598z" />
<glyph unicode="8" horiz-adv-x="829" d="M57 336q0 107 59 196.5t154 131.5q-83 40 -133.5 120.5t-50.5 176.5q0 137 97 234t233 97q137 0 234.5 -97.5t97.5 -233.5q0 -96 -51.5 -176.5t-135.5 -120.5q96 -42 155.5 -131t59.5 -197q0 -149 -105.5 -255t-254.5 -106q-148 0 -253.5 106t-105.5 255zM121 336 q0 -123 86.5 -209t208.5 -86q123 0 209 86t86 209q0 120 -83.5 206t-203.5 89h-16q-119 -3 -203 -89t-84 -206zM150 961q0 -108 77.5 -184.5t188.5 -82.5h8q107 3 183.5 81.5t76.5 185.5q0 110 -79 189t-189 79t-188 -79t-78 -189z" />
<glyph unicode="9" horiz-adv-x="929" d="M51 842q0 170 120.5 290.5t289.5 120.5q170 0 290.5 -120.5t120.5 -290.5q0 -122 -63 -219l-350 -658l-58 29l263 491q-89 -53 -203 -53q-169 0 -289.5 120.5t-120.5 289.5zM115 842q0 -142 101.5 -244t244.5 -102q144 0 246 101.5t102 244.5q0 145 -101.5 246.5 t-246.5 101.5q-143 0 -244.5 -102t-101.5 -246z" />
<glyph unicode=":" horiz-adv-x="190" d="M33 113q0 45 57 57q42 0 57 -57q0 -58 -57 -58q-19 0 -39 17q-15 15 -18 41zM33 649q0 49 57 58q42 0 57 -58q0 -57 -57 -57q-20 0 -39 16q-15 15 -18 41z" />
<glyph unicode=";" horiz-adv-x="360" d="M66 -164l133 291l57 -25l-170 -278zM119 592q0 48 57 57q43 0 55 -57q0 -57 -55 -57q-19 0 -41 16q-16 16 -16 41z" />
<glyph unicode="&#x3c;" horiz-adv-x="563" d="M49 457l449 272v-74l-328 -198l328 -199v-76z" />
<glyph unicode="=" horiz-adv-x="540" d="M70 401v68h403v-68h-403zM70 625v67h403v-67h-403z" />
<glyph unicode="&#x3e;" horiz-adv-x="583" d="M63 180v76l326 199l-326 198v74l449 -272z" />
<glyph unicode="?" horiz-adv-x="804" d="M29 1001q108 209 346 209q70 0 136.5 -22t121 -63t88 -107t33.5 -146q0 -113 -53.5 -182.5t-159.5 -128.5q-73 -39 -109.5 -85.5t-36.5 -115.5v-145h-55v145q0 85 44 143t132 105q89 50 136.5 111t47.5 153q0 89 -49 155.5t-121.5 98t-154.5 31.5q-211 0 -299 -180z M326 47q0 38 49 47q38 0 47 -47q0 -49 -47 -49q-18 0 -35 14q-10 10 -14 35z" />
<glyph unicode="@" horiz-adv-x="1742" d="M68 526q0 326 229 547q234 223 565 223q322 0 555 -204q240 -214 240 -531q0 -183 -72 -309q-87 -154 -258 -154q-87 0 -141 60q-44 53 -49 104l-7 31l-14 -27q-92 -168 -334 -168q-168 0 -260 103q-88 105 -88 276q0 173 115 291q121 115 295 115q225 0 303 -176l16 -37 l15 194h55l-39 -483q-9 -103 39 -172q40 -49 106 -49q117 0 197 139q61 101 61 262q0 149 -55 268q-58 128 -166 220q-104 93 -233 141q-130 47 -281 47q-162 0 -287 -51q-135 -55 -233 -156q-111 -105 -162 -227q-55 -125 -55 -277q0 -159 51 -295q51 -125 156 -227 q104 -98 237 -147q133 -50 295 -50q126 0 262 37q156 48 228 129l43 -43q-65 -71 -207 -125h-2q-145 -57 -330 -57q-380 0 -594 240q-196 214 -196 538zM496 477q0 -317 286 -317q164 0 250 100q94 104 94 262q0 133 -75 217t-207 84q-143 0 -248 -102q-100 -100 -100 -244z " />
<glyph unicode="A" horiz-adv-x="1052" d="M29 2l465 1229h55l465 -1229h-60l-229 606h-408l-227 -606h-61zM338 664h367l-183 483z" />
<glyph unicode="B" horiz-adv-x="733" d="M51 2l2 51l-2 572l2 80q0 503 -2 503v54q44 10 111 10q172 0 291 -90q125 -92 125 -226q0 -133 -125 -225q-40 -32 -101 -55q59 -14 115 -43t103.5 -70.5t76.5 -99.5t29 -123q0 -72 -37.5 -137.5t-106.5 -116.5q-136 -102 -333 -102q-77 0 -148 18zM53 53v402v170v-572z M104 43q62 -8 95 -8q177 0 301.5 89.5t124.5 215.5q0 123 -120 211.5t-290 91.5q-9 0 -26.5 -1t-26.5 -1h-17q-17 0 -41 -4v-594zM104 696l39 -4q36 4 56 4q10 0 14 -2q133 14 223 88.5t90 173.5q0 109 -107 187t-257 78q-40 0 -58 -2v-523z" />
<glyph unicode="C" horiz-adv-x="1175" d="M39 610q0 174 84 322t228 234.5t313 86.5q137 0 259 -58.5t210 -160.5l-62 -14q-79 85 -184 131.5t-223 46.5q-155 0 -286.5 -79t-207.5 -214.5t-76 -294.5q0 -119 45 -227.5t121.5 -187t182 -124.5t221.5 -46q118 0 222.5 46.5t184.5 129.5l62 -15q-88 -102 -210 -160.5 t-259 -58.5q-169 0 -313 86.5t-228 234.5t-84 322z" />
<glyph unicode="D" horiz-adv-x="878" d="M45 -41v1311h21q201 0 372 -88.5t270 -239.5t99 -328t-99 -328t-270 -239t-372 -88h-21zM98 16q180 7 330.5 89t237 217t86.5 292q0 158 -87 293.5t-237 216.5t-330 88v-1196z" />
<glyph unicode="E" horiz-adv-x="587" d="M39 -2v1262h504v-64h-441v-434h441v-64h-441v-635h441v-65h-504z" />
<glyph unicode="F" horiz-adv-x="604" d="M37 -8v1257h516v-65h-453v-428h453v-64h-453v-700h-63z" />
<glyph unicode="G" horiz-adv-x="1333" d="M43 614q0 174 85 322t231.5 234.5t318.5 86.5q128 0 244 -49t204 -137l-61 -20q-164 151 -387 151q-157 0 -290.5 -79t-211.5 -214.5t-78 -294.5t78 -294t211.5 -213t290.5 -78q180 0 327 101t212 263h-463v58h540q-56 -209 -227 -344.5t-389 -135.5q-172 0 -318.5 86.5 t-231.5 234.5t-85 322z" />
<glyph unicode="H" horiz-adv-x="749" d="M43 2v1231h63v-494h535v494h66v-1231h-66v674h-535v-674h-63z" />
<glyph unicode="I" horiz-adv-x="186" d="M76 0v1229h63v-1229h-63z" />
<glyph unicode="J" horiz-adv-x="512" d="M33 78l53 20q94 -75 139 -75q65 0 102.5 30t37.5 56v79v1035h55v-1123q-3 -48 -56.5 -91.5t-138.5 -43.5q-79 0 -192 113z" />
<glyph unicode="K" horiz-adv-x="856" d="M43 0v1233h57v-584l588 588h82l-547 -541l600 -696h-73l-566 657l-84 -84v-573h-57z" />
<glyph unicode="L" horiz-adv-x="643" d="M41 2v1229h63v-1165h508v-64h-571z" />
<glyph unicode="M" horiz-adv-x="1048" d="M96 2v1229h60l391 -606l391 606h61v-1229h-63v1116l-358 -538h-60l-358 538v-1116h-64z" />
<glyph unicode="N" horiz-adv-x="942" d="M68 2v1229h55l715 -1129v1129h57v-1219v-10h-57l-715 1133v-1133h-55z" />
<glyph unicode="O" horiz-adv-x="1378" d="M43 618q0 175 87 324.5t236 236.5t324 87t324 -87t236 -236.5t87 -324.5t-87 -324t-236 -236t-324 -87t-324 87t-236 236t-87 324zM109 618q0 -158 77.5 -292t211.5 -211.5t292 -77.5t292 77.5t212 211.5t78 292t-77.5 292.5t-212 213t-292.5 78.5t-292 -78.5 t-211.5 -213t-77.5 -292.5z" />
<glyph unicode="P" horiz-adv-x="690" d="M102 2v1260q52 12 105 12q184 0 315 -115q63 -55 97 -127.5t34 -150.5q0 -161 -133 -263q-129 -96 -313 -96q-33 0 -49 2v-522h-56zM158 573q16 -2 49 -2q172 0 284.5 87.5t112.5 222.5q0 141 -116.5 242.5t-280.5 101.5q-17 0 -49 -4v-648z" />
<glyph unicode="Q" horiz-adv-x="1378" d="M41 618q0 132 51.5 252t138 206.5t206.5 138t251 51.5t250.5 -51.5t206 -138t137.5 -206.5t51 -252q0 -180 -91 -330t-245 -235l164 -426h-59l-154 402q-121 -56 -260 -56q-175 0 -324 86.5t-236 235t-87 323.5zM104 618q0 -118 46.5 -225t124.5 -185t186 -124.5 t227 -46.5q125 0 236 51l-64 168h60l55 -143q134 76 214.5 211t80.5 294q0 119 -46.5 227t-124.5 186t-185.5 124.5t-225.5 46.5q-158 0 -292.5 -78.5t-213 -213t-78.5 -292.5z" />
<glyph unicode="R" horiz-adv-x="706" d="M63 2v1260q53 12 105 12q184 0 315 -115q131 -113 131 -278q0 -161 -133 -263q-60 -48 -145 -73l330 -543h-76l-311 530q-58 -10 -111 -10q-33 0 -49 2v-522h-56zM119 573q16 -2 49 -2q172 0 284.5 87.5t112.5 222.5q0 141 -116.5 242.5t-280.5 101.5q-17 0 -49 -4v-648z " />
<glyph unicode="S" horiz-adv-x="829" d="M45 295h64q0 -64 27 -115t71.5 -81.5t98 -46t110.5 -15.5q126 0 213 65q94 72 94 193q0 39 -6 72.5t-14.5 59.5t-26.5 48.5t-32.5 38t-41.5 30t-45.5 23.5t-52.5 19t-54 15.5t-59 14.5q-142 36 -201 69q-145 79 -145 261q0 103 56.5 179.5t141 112.5t181.5 36 q148 0 246 -76q114 -86 114 -235h-63q0 116 -90 184q-81 63 -207 63q-81 0 -151 -29t-117 -90.5t-47 -144.5q0 -36 5 -65t18.5 -52.5t26 -40.5t37.5 -32t42.5 -24.5t52 -20t54.5 -16t61 -15.5q146 -37 209 -70q152 -81 169 -264q2 -25 2 -51q0 -155 -118 -244 q-104 -78 -252 -78q-95 0 -178 35.5t-138 110.5t-55 176z" />
<glyph unicode="T" horiz-adv-x="684" d="M27 1198v64h626v-64h-284v-1198h-64v1198h-278z" />
<glyph unicode="U" horiz-adv-x="901" d="M39 299v928h61v-946q9 -87 99 -152q104 -74 252 -74q147 0 249 76q99 71 99 168v928h61v-942l2 -6q-9 -115 -123 -199q-119 -86 -282 -86q-174 0 -293 86q-125 89 -125 219z" />
<glyph unicode="V" horiz-adv-x="962" d="M31 1251h63l387 -1159l389 1159h62l-420 -1253l-61 2z" />
<glyph unicode="W" horiz-adv-x="1427" d="M27 1237h59l381 -1139l219 641h57l215 -641l381 1139h60l-412 -1229l-57 2l-217 647l-217 -649l-58 2z" />
<glyph unicode="X" horiz-adv-x="1107" d="M41 -6l477 686l-389 567h70l354 -518l352 518h72l-389 -567l479 -686h-70l-444 635l-444 -635h-68z" />
<glyph unicode="Y" horiz-adv-x="997" d="M33 -14l477 686l-389 567h69l355 -518l352 518h72l-389 -567l-35 -51l-445 -635h-67z" />
<glyph unicode="Z" horiz-adv-x="1288" d="M39 -2l1067 1198h-997v61h1140l-53 -51l-1022 -1149h1000v-59h-1135z" />
<glyph unicode="[" horiz-adv-x="280" d="M43 -170v1452h190v-57h-120v-1340h127v-55h-197z" />
<glyph unicode="\" horiz-adv-x="534" d="M51 1290h66l370 -1292h-65z" />
<glyph unicode="]" horiz-adv-x="303" d="M37 -113h129v1340h-123v57h190v-1452h-196v55z" />
<glyph unicode="^" horiz-adv-x="466" d="M59 752l174 184l175 -184l-48 -43l-127 131l-127 -131z" />
<glyph unicode="_" horiz-adv-x="747" d="M39 -350h663v-60h-663v60z" />
<glyph unicode="`" horiz-adv-x="264" d="M51 1384l37 39l121 -120l-41 -37z" />
<glyph unicode="a" d="M35 367q0 163 116 278t279 115q104 0 194 -52.5t142 -140.5v164h57v-731h-57v164q-52 -87 -141.5 -139t-194.5 -52q-163 0 -279 115.5t-116 278.5zM92 367q0 -139 99 -238.5t239 -99.5q138 0 237 99.5t99 238.5t-99 238.5t-237 99.5q-140 0 -239 -99.5t-99 -238.5z" />
<glyph unicode="b" horiz-adv-x="894" d="M57 8v1225h56v-658q54 88 143.5 140.5t194.5 52.5q163 0 278 -115t115 -278t-115 -278t-278 -115q-106 0 -195.5 51t-142.5 139v-164h-56zM113 375q0 -139 99.5 -238.5t238.5 -99.5t238 99t99 239t-99 239t-238 99t-238.5 -99.5t-99.5 -238.5z" />
<glyph unicode="c" horiz-adv-x="755" d="M47 369q0 163 116 278t279 115t252 -64q-12 -14 -37 -39q-36 22 -100.5 35t-114.5 13q-140 0 -239 -99.5t-99 -238.5t99 -238.5t239 -99.5q50 0 114.5 12.5t100.5 32.5l45 -43q-80 -58 -260 -58q-163 0 -279 115.5t-116 278.5z" />
<glyph unicode="d" horiz-adv-x="901" d="M47 371q0 163 115 278t278 115q105 0 194.5 -52.5t143.5 -140.5v658h56v-1225h-56v164q-53 -88 -142.5 -139.5t-195.5 -51.5q-163 0 -278 115.5t-115 278.5zM102 371q0 -139 99 -238.5t239 -99.5t239 99.5t99 238.5t-99 238.5t-239 99.5t-239 -99.5t-99 -238.5z" />
<glyph unicode="e" horiz-adv-x="880" d="M63 371q0 163 115.5 278t278.5 115q155 0 267.5 -106.5t123.5 -260.5q2 -8 2 -26q0 -19 -2 -29h-729q11 -130 108 -219.5t230 -89.5q82 0 154 36.5t118 100.5l49 -25q-53 -78 -138 -123t-183 -45q-163 0 -278.5 115.5t-115.5 278.5zM119 397h674q-11 131 -107.5 221.5 t-228.5 90.5q-133 0 -230 -90.5t-108 -221.5z" />
<glyph unicode="f" horiz-adv-x="532" d="M23 733v58h139v335q4 50 48 93t128 43q86 0 158 -72l-54 -21q-44 35 -104 35q-64 0 -92.5 -29t-28.5 -57v-327h139v-58h-139v-729h-55v729h-139z" />
<glyph unicode="g" horiz-adv-x="911" d="M41 389q0 163 116 278t279 115q106 0 196 -52.5t142 -141.5v166h55v-840q0 -107 -55 -197q-52 -86 -139.5 -137t-190.5 -51q-146 0 -255 97t-128 239h56q19 -120 111.5 -200.5t215.5 -80.5q136 0 233 97t97 233v274q-52 -88 -142.5 -140t-197.5 -52q-162 0 -277.5 115.5 t-115.5 277.5zM98 389q0 -139 99 -238.5t239 -99.5q138 0 237 99.5t99 238.5t-99 238.5t-237 99.5q-140 0 -239 -99.5t-99 -238.5z" />
<glyph unicode="h" horiz-adv-x="901" d="M47 14v1225h55v-657q54 88 143.5 140t194.5 52q163 0 278.5 -115t115.5 -278v-367h-56v381q-6 135 -104 229.5t-234 94.5q-139 0 -238.5 -100t-99.5 -240v-365h-55z" />
<glyph unicode="i" horiz-adv-x="212" d="M78 893q0 15 12 27t29 12q15 0 27 -12t12 -27q0 -17 -12 -29t-27 -12q-17 0 -29 12t-12 29zM90 2v729h55v-729h-55z" />
<glyph unicode="j" horiz-adv-x="442" d="M35 -451l53 21q44 -35 107 -35t90.5 29t27.5 57v80v1034h56v-1122q-4 -50 -48 -92.5t-128 -42.5q-87 0 -158 71zM301 897q0 15 12 27t29 12t28 -11.5t11 -27.5q0 -17 -11 -29t-28 -12t-29 12t-12 29z" />
<glyph unicode="k" horiz-adv-x="700" d="M33 -4v1233h57v-795l420 311h82l-369 -268l445 -479h-74l-412 444l-92 -77v-369h-57z" />
<glyph unicode="l" horiz-adv-x="256" d="M106 0v1225h56v-1225h-56z" />
<glyph unicode="m" horiz-adv-x="1650" d="M39 -2v731h55v-164q54 88 143.5 140.5t194.5 52.5q118 0 215.5 -64.5t145.5 -169.5q47 99 154.5 166.5t215.5 67.5q163 0 278 -115t115 -278v-367h-55v381q-6 134 -104 228.5t-234 94.5q-138 0 -238 -99t-100 -238v-367h-55v381q-6 134 -104 228.5t-234 94.5 q-139 0 -238.5 -100t-99.5 -240v-364h-55z" />
<glyph unicode="n" horiz-adv-x="894" d="M43 0v731h55v-164q54 88 143.5 140.5t194.5 52.5q163 0 278 -115t115 -278v-367h-55v381q-6 134 -104 229t-234 95q-139 0 -238.5 -100t-99.5 -240v-365h-55z" />
<glyph unicode="o" d="M37 362q0 163 115 278.5t278 115.5t278 -115.5t115 -278.5t-115 -278t-278 -115t-278 115t-115 278zM92 362q0 -139 99 -238t239 -99t239 99t99 238q0 140 -99 239t-239 99t-239 -99t-99 -239z" />
<glyph unicode="p" horiz-adv-x="878" d="M45 -492v1227h57v-164q52 87 142 139t196 52q162 0 278 -115.5t116 -277.5t-116 -278t-278 -116q-106 0 -196 52t-142 139v-658h-57zM102 369q0 -139 99 -238.5t239 -99.5q138 0 237 99.5t99 238.5t-99 238.5t-237 99.5q-140 0 -239 -99.5t-99 -238.5z" />
<glyph unicode="q" horiz-adv-x="862" d="M37 367q0 163 115 278t278 115q106 0 195.5 -51.5t142.5 -139.5v164h55v-1227h-55v658q-53 -88 -142.5 -139.5t-195.5 -51.5q-163 0 -278 115.5t-115 278.5zM92 367q0 -139 99 -238.5t239 -99.5t239 99.5t99 238.5t-99 238.5t-239 99.5t-239 -99.5t-99 -238.5z" />
<glyph unicode="r" horiz-adv-x="598" d="M68 2v733h55v-59q80 86 213 86q128 0 205 -74l-41 -39q-65 58 -164 58q-94 0 -153.5 -50.5t-59.5 -130.5v-524h-55z" />
<glyph unicode="s" horiz-adv-x="610" d="M35 180h55q6 -65 69.5 -100t145.5 -35q89 0 152 37q63 40 63 106q0 89 -63 129q-45 30 -170 54q-2 0 -5.5 1t-5.5 1t-6 2t-6 2q-6 1 -25 5.5t-27.5 6.5t-24.5 6.5t-25.5 8t-22 9t-22.5 11.5q-82 46 -82 141q0 90 83 142.5t195 52.5q106 0 179 -45q77 -50 83 -131h-57 q-3 60 -61 94q-56 35 -144 35q-90 0 -156.5 -38t-66.5 -110q0 -30 10.5 -52.5t25 -36.5t45.5 -25.5t57 -18t73 -16.5q39 -8 57 -12t53.5 -14.5t53.5 -20.5t43.5 -27.5t38 -38t22 -50t9.5 -65.5q0 -87 -82 -137.5t-191 -50.5q-106 0 -186 48t-84 132z" />
<glyph unicode="t" horiz-adv-x="403" d="M31 723v55h135v449h57v-449h142v-55h-142v-729h-57v729h-135z" />
<glyph unicode="u" d="M39 367v366h55v-381q6 -135 104 -229t234 -94q139 0 238.5 100t99.5 240v364h55v-405q0 -36 -13.5 -77t-27.5 -64l-14 -23q-53 -88 -142.5 -139.5t-195.5 -51.5q-163 0 -278 115.5t-115 278.5z" />
<glyph unicode="v" horiz-adv-x="868" d="M45 754h68l325 -695l324 695h69l-358 -764h-70z" />
<glyph unicode="w" horiz-adv-x="1251" d="M33 743h61l332 -694l162 531h61l162 -529l332 694h61l-364 -755h-62l-160 522l-163 -522h-60z" />
<glyph unicode="x" horiz-adv-x="845" d="M10 2l359 412l-277 317h68l243 -278l242 278h68l-275 -317l361 -412h-70l-326 373l-323 -373h-70z" />
<glyph unicode="y" horiz-adv-x="768" d="M57 741h60l289 -641l274 641h57l-303 -729l-164 -493h-59l166 495z" />
<glyph unicode="z" horiz-adv-x="706" d="M35 -8l528 674h-506v55h615l-541 -674h537v-55h-633z" />
<glyph unicode="{" horiz-adv-x="450" d="M51 571q80 65 80 164v332q0 121 49 170t170 49v-61q-86 0 -121 -35q-39 -36 -39 -123v-332q0 -101 -73 -162l-2 -2l2 -2q31 -31 51 -75q22 -49 22 -86v-363q0 -92 37 -119q35 -30 125 -30v-62q-121 0 -170 43q-51 42 -51 164v367q0 40 -29 96q-10 23 -51 67z" />
<glyph unicode="|" horiz-adv-x="186" d="M72 -268v1534h45v-1534h-45z" />
<glyph unicode="}" horiz-adv-x="409" d="M59 -109q85 0 125 29q35 30 35 121v362q0 82 74 162l2 2l-2 2q-35 27 -53 68q-21 41 -21 94v332q0 86 -37 123q-35 35 -121 35v61q117 0 168 -51q52 -52 52 -168v-332q0 -51 28 -102q15 -26 51 -62q-36 -36 -51 -65q-28 -51 -28 -99v-366q0 -120 -50 -164 q-52 -43 -172 -43v61z" />
<glyph unicode="~" horiz-adv-x="786" d="M51 498q91 88 209 88q38 0 66 -11l73 -32l62 -29l31 -8l32 -4h2q77 0 140 63l53 -45q-85 -88 -191 -88q-49 0 -69 10l-76 33l-45 25q-39 20 -78 20q-49 0 -98 -22l-31 -21l-33 -28z" />
<glyph unicode="&#xa8;" horiz-adv-x="296" d="M33 1182q0 22 28 28q29 0 29 -28q0 -11 -8 -19q-4 -6 -21 -10q-22 0 -28 29zM199 1182q0 22 28 28q29 0 29 -28q0 -7 -8 -19q-6 -6 -21 -10q-22 0 -28 29z" />
<glyph unicode="&#xad;" horiz-adv-x="444" d="M33 500v69h379v-69h-379z" />
<glyph unicode="&#xb0;" horiz-adv-x="315" d="M47 1092q0 45 33.5 77.5t79.5 32.5t79 -32t33 -78q0 -47 -33 -80t-79 -33t-79.5 33t-33.5 80zM104 1092q0 -23 16.5 -39.5t39.5 -16.5t39 16.5t16 39.5q0 22 -16 38.5t-39 16.5t-39.5 -16.5t-16.5 -38.5z" />
<glyph unicode="&#xb4;" horiz-adv-x="276" d="M78 1296l121 121l37 -39l-117 -118z" />
<glyph unicode="&#xb7;" horiz-adv-x="208" d="M49 625q0 45 57 57q43 0 58 -57q0 -58 -58 -58q-18 0 -38 17q-16 16 -19 41z" />
<glyph unicode="&#xb8;" horiz-adv-x="196" d="M41 -182q0 23 6 32l31 35l18 21q19 22 19 39q0 24 -19 49l-16 14l-23 15h60q43 -36 43 -78q0 -18 -8 -31l-27 -35l-25 -29l-8 -16l-4 -16q0 -39 51 -68l-30 -20q-68 41 -68 88z" />
<glyph unicode="&#xc0;" horiz-adv-x="1052" d="M29 2l465 1229h55l465 -1229h-60l-229 606h-408l-227 -606h-61zM338 664h367l-183 483zM446 1405l37 39l121 -121l-41 -37z" />
<glyph unicode="&#xc1;" horiz-adv-x="1052" d="M29 2l465 1229h55l465 -1229h-60l-229 606h-408l-227 -606h-61zM338 664h367l-183 483zM446 1329l121 121l37 -39l-117 -119z" />
<glyph unicode="&#xc2;" horiz-adv-x="1052" d="M29 2l465 1229h55l465 -1229h-60l-229 606h-408l-227 -606h-61zM338 664h367l-183 483zM408 1327l116 125l119 -125l-41 -37l-78 78l-75 -78z" />
<glyph unicode="&#xc3;" horiz-adv-x="1052" d="M29 2l465 1229h55l465 -1229h-60l-229 606h-408l-227 -606h-61zM254 1356q74 71 166 71q25 0 55 -10l60 -26l51 -25l28 -8l29 -2q65 0 119 51l37 -31q-67 -67 -152 -67q-41 0 -59 6l-62 28l-39 21q-27 16 -67 16q-44 0 -84 -18l-27 -16l-24 -23zM338 664h367l-183 483z " />
<glyph unicode="&#xc4;" horiz-adv-x="1705" />
<glyph unicode="&#xc7;" horiz-adv-x="1175" d="M39 610q0 174 84 322t228 234.5t313 86.5q137 0 259 -58.5t210 -160.5l-62 -14q-79 85 -184 131.5t-223 46.5q-155 0 -286.5 -79t-207.5 -214.5t-76 -294.5q0 -119 45 -227.5t121.5 -187t182 -124.5t221.5 -46q118 0 222.5 46.5t184.5 129.5l62 -15q-88 -102 -210 -160.5 t-259 -58.5q-169 0 -313 86.5t-228 234.5t-84 322zM590 -231q0 23 6 32l31 35l18 21q19 22 19 39q0 24 -19 49l-16 14l-23 14h60q43 -36 43 -77q0 -16 -9 -31l-26 -35l-25 -29l-8 -16l-4 -16q0 -39 51 -68l-31 -20q-67 40 -67 88z" />
<glyph unicode="&#xc8;" horiz-adv-x="587" d="M39 -2v1262h504v-64h-441v-434h441v-64h-441v-635h441v-65h-504zM215 1423l37 39l121 -121l-41 -36z" />
<glyph unicode="&#xc9;" horiz-adv-x="587" d="M39 -2v1262h504v-64h-441v-434h441v-64h-441v-635h441v-65h-504zM215 1323l121 121l37 -39l-117 -119z" />
<glyph unicode="&#xca;" horiz-adv-x="587" d="M39 -2v1262h504v-64h-441v-434h441v-64h-441v-635h441v-65h-504zM176 1337l117 125l119 -125l-41 -37l-78 78l-76 -78z" />
<glyph unicode="&#xcb;" horiz-adv-x="587" d="M39 -2v1262h504v-64h-441v-434h441v-64h-441v-635h441v-65h-504zM182 1356q0 22 29 28q29 0 29 -28q0 -10 -9 -19q-4 -6 -20 -10q-23 0 -29 29zM348 1356q0 22 29 28q29 0 29 -28q0 -6 -9 -19q-7 -7 -20 -10q-23 0 -29 29z" />
<glyph unicode="&#xcc;" horiz-adv-x="186" d="M14 1399l37 39l121 -121l-41 -37zM76 0v1229h63v-1229h-63z" />
<glyph unicode="&#xcd;" horiz-adv-x="186" d="M14 1307l121 120l37 -38l-117 -119zM76 0v1229h63v-1229h-63z" />
<glyph unicode="&#xce;" horiz-adv-x="186" d="M-25 1327l117 125l119 -125l-41 -37l-78 78l-76 -78zM76 0v1229h63v-1229h-63z" />
<glyph unicode="&#xcf;" horiz-adv-x="186" d="M-18 1331q0 23 28 29q29 0 29 -29q0 -10 -8 -18q-4 -6 -21 -10q-22 0 -28 28zM76 0v1229h63v-1229h-63zM147 1331q0 23 29 29q29 0 29 -29q0 -6 -8 -18q-6 -6 -21 -10q-23 0 -29 28z" />
<glyph unicode="&#xd1;" horiz-adv-x="942" d="M68 2v1229h55l715 -1129v1129h57v-1219v-10h-57l-715 1133v-1133h-55zM199 1350q74 71 166 71q25 0 55 -10l59 -27l51 -24l29 -8l29 -2q65 0 119 51l36 -31q-67 -67 -151 -67q-42 0 -60 6l-61 28l-39 21q-27 16 -67 16q-43 0 -84 -18l-27 -17l-25 -22z" />
<glyph unicode="&#xd2;" horiz-adv-x="1378" d="M43 618q0 -175 87 -324t236 -236t324 -87t324 87t236 236t87 324t-87 324.5t-236 236.5t-324 87t-324 -87t-236 -236.5t-87 -324.5zM109 618q0 158 77.5 292.5t211.5 213t292 78.5t292.5 -78.5t212 -213t77.5 -292.5t-78 -292t-212 -211.5t-292 -77.5t-292 77.5 t-211.5 211.5t-77.5 292zM610 1434l37 39l121 -121l-41 -37z" />
<glyph unicode="&#xd3;" horiz-adv-x="1378" d="M43 618q0 175 87 324.5t236 236.5t324 87t324 -87t236 -236.5t87 -324.5t-87 -324t-236 -236t-324 -87t-324 87t-236 236t-87 324zM109 618q0 -158 77.5 -292t211.5 -211.5t292 -77.5t292 77.5t212 211.5t78 292t-77.5 292.5t-212 213t-292.5 78.5t-292 -78.5 t-211.5 -213t-77.5 -292.5zM610 1352l121 121l37 -39l-117 -119z" />
<glyph unicode="&#xd4;" horiz-adv-x="1378" d="M43 618q0 -175 87 -324t236 -236t324 -87t324 87t236 236t87 324t-87 324.5t-236 236.5t-324 87t-324 -87t-236 -236.5t-87 -324.5zM109 618q0 158 77.5 292.5t211.5 213t292 78.5t292.5 -78.5t212 -213t77.5 -292.5t-78 -292t-212 -211.5t-292 -77.5t-292 77.5 t-211.5 211.5t-77.5 292zM571 1339l117 125l119 -125l-41 -36l-78 77l-76 -77z" />
<glyph unicode="&#xd5;" horiz-adv-x="1378" d="M43 618q0 -175 87 -324t236 -236t324 -87t324 87t236 236t87 324t-87 324.5t-236 236.5t-324 87t-324 -87t-236 -236.5t-87 -324.5zM109 618q0 158 77.5 292.5t211.5 213t292 78.5t292.5 -78.5t212 -213t77.5 -292.5t-78 -292t-212 -211.5t-292 -77.5t-292 77.5 t-211.5 211.5t-77.5 292zM416 1374q75 72 166 72q25 0 55 -10l59 -27l52 -25l28 -8l29 -2q65 0 119 51l37 -30q-68 -68 -152 -68q-41 0 -59 6l-62 29l-39 20q-28 17 -67 17q-41 0 -84 -19l-27 -16l-25 -23z" />
<glyph unicode="&#xd6;" horiz-adv-x="1378" d="M43 618q0 -175 87 -324t236 -236t324 -87t324 87t236 236t87 324t-87 324.5t-236 236.5t-324 87t-324 -87t-236 -236.5t-87 -324.5zM109 618q0 158 77.5 292.5t211.5 213t292 78.5t292.5 -78.5t212 -213t77.5 -292.5t-78 -292t-212 -211.5t-292 -77.5t-292 77.5 t-211.5 211.5t-77.5 292zM578 1374q0 23 28 29q29 0 29 -29q0 -10 -8 -18q-4 -6 -21 -10q-22 0 -28 28zM743 1374q0 23 29 29q29 0 29 -29q0 -6 -8 -18q-6 -6 -21 -10q-23 0 -29 28z" />
<glyph unicode="&#xd9;" horiz-adv-x="946" d="M84 299v928h61v-946q9 -87 99 -152q104 -74 252 -74q147 0 249 76q99 71 99 168v928h61v-942l2 -6q-9 -115 -123 -199q-119 -86 -282 -86q-174 0 -293 86q-125 89 -125 219zM393 1401l37 39l121 -121l-41 -37z" />
<glyph unicode="&#xda;" horiz-adv-x="946" d="M84 299v928h61v-946q9 -87 99 -152q104 -74 252 -74q147 0 249 76q99 71 99 168v928h61v-942l2 -6q-9 -115 -123 -199q-119 -86 -282 -86q-174 0 -293 86q-125 89 -125 219zM393 1313l121 121l37 -39l-117 -119z" />
<glyph unicode="&#xdb;" horiz-adv-x="946" d="M84 299v928h61v-946q9 -87 99 -152q104 -74 252 -74q147 0 249 76q99 71 99 168v928h61v-942l2 -6q-9 -115 -123 -199q-119 -86 -282 -86q-174 0 -293 86q-125 89 -125 219zM354 1294l117 125l119 -125l-41 -37l-78 78l-76 -78z" />
<glyph unicode="&#xdc;" horiz-adv-x="901" d="M39 299v928h61v-946q9 -87 99 -152q104 -74 252 -74q147 0 249 76q99 71 99 168v928h61v-942l2 -6q-9 -115 -123 -199q-119 -86 -282 -86q-174 0 -293 86q-125 89 -125 219zM338 1343q0 23 29 29q28 0 28 -29q0 -10 -8 -18q-4 -6 -20 -10q-23 0 -29 28zM504 1343 q0 23 28 29q29 0 29 -29q0 -6 -8 -18q-6 -6 -21 -10q-22 0 -28 28z" />
<glyph unicode="&#xe0;" d="M35 367q0 163 116 278t279 115q104 0 194 -52.5t142 -140.5v164h57v-731h-57v164q-52 -87 -141.5 -139t-194.5 -52q-163 0 -279 115.5t-116 278.5zM92 367q0 -139 99 -238.5t239 -99.5q138 0 237 99.5t99 238.5t-99 238.5t-237 99.5q-140 0 -239 -99.5t-99 -238.5z M358 977l37 39l121 -121l-41 -37z" />
<glyph unicode="&#xe1;" horiz-adv-x="1007" d="M35 367q0 163 116 278t279 115q104 0 194 -52.5t142 -140.5v164h57v-731h-57v164q-52 -87 -141.5 -139t-194.5 -52q-163 0 -279 115.5t-116 278.5zM92 367q0 -139 99 -238.5t239 -99.5q138 0 237 99.5t99 238.5t-99 238.5t-237 99.5q-140 0 -239 -99.5t-99 -238.5z M354 897l121 121l37 -39l-117 -119z" />
<glyph unicode="&#xe2;" d="M35 367q0 163 116 278t279 115q104 0 194 -52.5t142 -140.5v164h57v-731h-57v164q-52 -87 -141.5 -139t-194.5 -52q-163 0 -279 115.5t-116 278.5zM92 367q0 -139 99 -238.5t239 -99.5q138 0 237 99.5t99 238.5t-99 238.5t-237 99.5q-140 0 -239 -99.5t-99 -238.5z M319 901l117 125l119 -125l-41 -37l-78 78l-76 -78z" />
<glyph unicode="&#xe3;" horiz-adv-x="1007" d="M35 367q0 163 116 278t279 115q104 0 194 -52.5t142 -140.5v164h57v-731h-57v164q-52 -87 -141.5 -139t-194.5 -52q-163 0 -279 115.5t-116 278.5zM92 367q0 -139 99 -238.5t239 -99.5q138 0 237 99.5t99 238.5t-99 238.5t-237 99.5q-140 0 -239 -99.5t-99 -238.5z M178 907q75 72 166 72q25 0 55 -10l60 -27l51 -24l29 -9l28 -2q65 0 119 51l37 -30q-68 -68 -152 -68q-41 0 -59 6l-61 29l-39 20q-28 17 -68 17q-41 0 -84 -19l-27 -16l-24 -23z" />
<glyph unicode="&#xe4;" horiz-adv-x="1007" d="M35 367q0 163 116 278t279 115q104 0 194 -52.5t142 -140.5v164h57v-731h-57v164q-52 -87 -141.5 -139t-194.5 -52q-163 0 -279 115.5t-116 278.5zM92 367q0 -139 99 -238.5t239 -99.5q138 0 237 99.5t99 238.5t-99 238.5t-237 99.5q-140 0 -239 -99.5t-99 -238.5z M297 918q0 22 29 28q28 0 28 -28q0 -11 -8 -19q-4 -6 -20 -10q-23 0 -29 29zM463 918q0 22 29 28q28 0 28 -28q0 -7 -8 -19q-7 -7 -20 -10q-23 0 -29 29z" />
<glyph unicode="&#xe7;" horiz-adv-x="755" d="M47 369q0 163 116 278t279 115t252 -64q-12 -14 -37 -39q-36 22 -100.5 35t-114.5 13q-140 0 -239 -99.5t-99 -238.5t99 -238.5t239 -99.5q50 0 114.5 12.5t100.5 32.5l45 -43q-80 -58 -260 -58q-163 0 -279 115.5t-116 278.5zM317 -182q0 22 7 32l30 35l19 21 q18 21 18 39q0 25 -18 49l-17 14l-22 15h59q43 -36 43 -78q0 -18 -8 -31l-27 -35l-24 -29l-8 -16l-4 -16q0 -39 51 -68l-31 -20q-68 41 -68 88z" />
<glyph unicode="&#xe8;" horiz-adv-x="880" d="M63 371q0 163 115.5 278t278.5 115q155 0 267.5 -106.5t123.5 -260.5q2 -8 2 -26q0 -19 -2 -29h-729q11 -130 108 -219.5t230 -89.5q82 0 154 36.5t118 100.5l49 -25q-53 -78 -138 -123t-183 -45q-163 0 -278.5 115.5t-115.5 278.5zM119 397h674q-11 131 -107.5 221.5 t-228.5 90.5q-133 0 -230 -90.5t-108 -221.5zM360 969l37 39l121 -121l-41 -37z" />
<glyph unicode="&#xe9;" horiz-adv-x="880" d="M63 371q0 163 115.5 278t278.5 115q155 0 267.5 -106.5t123.5 -260.5q2 -8 2 -26q0 -19 -2 -29h-729q11 -130 108 -219.5t230 -89.5q82 0 154 36.5t118 100.5l49 -25q-53 -78 -138 -123t-183 -45q-163 0 -278.5 115.5t-115.5 278.5zM119 397h674q-11 131 -107.5 221.5 t-228.5 90.5q-133 0 -230 -90.5t-108 -221.5zM360 877l121 120l37 -39l-117 -118z" />
<glyph unicode="&#xea;" horiz-adv-x="880" d="M63 371q0 163 115.5 278t278.5 115q155 0 267.5 -106.5t123.5 -260.5q2 -8 2 -26q0 -19 -2 -29h-729q11 -130 108 -219.5t230 -89.5q82 0 154 36.5t118 100.5l49 -25q-53 -78 -138 -123t-183 -45q-163 0 -278.5 115.5t-115.5 278.5zM119 397h674q-11 131 -107.5 221.5 t-228.5 90.5q-133 0 -230 -90.5t-108 -221.5zM322 909l116 125l119 -125l-41 -37l-78 78l-76 -78z" />
<glyph unicode="&#xeb;" horiz-adv-x="880" d="M63 371q0 163 115.5 278t278.5 115q155 0 267.5 -106.5t123.5 -260.5q2 -8 2 -26q0 -19 -2 -29h-729q11 -130 108 -219.5t230 -89.5q82 0 154 36.5t118 100.5l49 -25q-53 -78 -138 -123t-183 -45q-163 0 -278.5 115.5t-115.5 278.5zM119 397h674q-11 131 -107.5 221.5 t-228.5 90.5q-133 0 -230 -90.5t-108 -221.5zM328 872q0 23 28 29q29 0 29 -29q0 -10 -8 -18q-4 -6 -21 -10q-22 0 -28 28zM494 872q0 23 28 29q29 0 29 -29q0 -6 -8 -18q-6 -6 -21 -10q-22 0 -28 28z" />
<glyph unicode="&#xec;" horiz-adv-x="327" d="M84 924l37 39l121 -121l-41 -37zM129 2v729h55v-729h-55z" />
<glyph unicode="&#xed;" horiz-adv-x="327" d="M84 838l121 120l37 -38l-117 -119zM129 2v729h55v-729h-55z" />
<glyph unicode="&#xee;" horiz-adv-x="327" d="M47 834l117 124l119 -124l-41 -37l-78 77l-76 -77zM129 2v729h55v-729h-55z" />
<glyph unicode="&#xef;" horiz-adv-x="327" d="M51 840q0 22 29 28q29 0 29 -28q0 -10 -9 -19q-4 -6 -20 -10q-23 0 -29 29zM129 2v729h55v-729h-55zM217 840q0 22 29 28q28 0 28 -28q0 -7 -8 -19q-7 -7 -20 -10q-23 0 -29 29z" />
<glyph unicode="&#xf1;" horiz-adv-x="894" d="M43 0v731h55v-164q54 88 143.5 140.5t194.5 52.5q163 0 278 -115t115 -278v-367h-55v381q-6 134 -104 229t-234 95q-139 0 -238.5 -100t-99.5 -240v-365h-55zM174 958q75 72 166 72q25 0 55 -10l60 -27l51 -24l29 -8l28 -3q64 0 119 52l37 -31q-68 -68 -152 -68 q-38 0 -59 7l-62 28l-38 21q-27 16 -68 16q-44 0 -84 -18l-27 -17l-24 -22z" />
<glyph unicode="&#xf2;" d="M37 362q0 -163 115 -278t278 -115t278 115t115 278t-115 278.5t-278 115.5t-278 -115.5t-115 -278.5zM92 362q0 140 99 239t239 99t239 -99t99 -239q0 -139 -99 -238t-239 -99t-239 99t-99 238zM358 924l37 39l121 -121l-41 -37z" />
<glyph unicode="&#xf3;" d="M37 362q0 163 115 278.5t278 115.5t278 -115.5t115 -278.5t-115 -278t-278 -115t-278 115t-115 278zM92 362q0 -139 99 -238t239 -99t239 99t99 238q0 140 -99 239t-239 99t-239 -99t-99 -239zM358 854l121 121l37 -39l-117 -119z" />
<glyph unicode="&#xf4;" d="M37 362q0 -163 115 -278t278 -115t278 115t115 278t-115 278.5t-278 115.5t-278 -115.5t-115 -278.5zM92 362q0 140 99 239t239 99t239 -99t99 -239q0 -139 -99 -238t-239 -99t-239 99t-99 238zM319 868l117 125l119 -125l-41 -37l-78 78l-76 -78z" />
<glyph unicode="&#xf5;" d="M37 362q0 -163 115 -278t278 -115t278 115t115 278t-115 278.5t-278 115.5t-278 -115.5t-115 -278.5zM92 362q0 140 99 239t239 99t239 -99t99 -239q0 -139 -99 -238t-239 -99t-239 99t-99 238zM127 903q75 72 166 72q25 0 55 -10l60 -27l51 -25l28 -8l29 -2q65 0 119 51 l37 -30q-68 -68 -152 -68q-41 0 -59 6l-62 29l-39 20q-28 17 -67 17q-41 0 -84 -19l-27 -16l-24 -23z" />
<glyph unicode="&#xf6;" d="M37 362q0 -163 115 -278t278 -115t278 115t115 278t-115 278.5t-278 115.5t-278 -115.5t-115 -278.5zM92 362q0 140 99 239t239 99t239 -99t99 -239q0 -139 -99 -238t-239 -99t-239 99t-99 238zM326 885q0 22 28 28q29 0 29 -28q0 -11 -8 -19q-4 -6 -21 -10q-22 0 -28 29 zM492 885q0 22 28 28q29 0 29 -28q0 -7 -8 -19q-6 -6 -21 -10q-22 0 -28 29z" />
<glyph unicode="&#xf7;" horiz-adv-x="598" d="M55 432v70h496v-70h-496zM258 264q0 34 51 43q39 0 51 -43q0 -43 -51 -43q-17 0 -35 12q-12 9 -16 31zM258 672q0 36 51 45q39 0 51 -45q0 -43 -51 -43q-17 0 -35 12q-13 13 -16 31z" />
<glyph unicode="&#xf9;" d="M39 367v366h55v-381q6 -135 104 -229t234 -94q139 0 238.5 100t99.5 240v364h55v-405q0 -36 -13.5 -77t-27.5 -64l-14 -23q-53 -88 -142.5 -139.5t-195.5 -51.5q-163 0 -278 115.5t-115 278.5zM358 963l37 38l121 -120l-41 -37z" />
<glyph unicode="&#xfa;" d="M39 367v366h55v-381q6 -135 104 -229t234 -94q139 0 238.5 100t99.5 240v364h55v-405q0 -36 -13.5 -77t-27.5 -64l-14 -23q-53 -88 -142.5 -139.5t-195.5 -51.5q-163 0 -278 115.5t-115 278.5zM358 827l121 121l37 -39l-117 -118z" />
<glyph unicode="&#xfb;" d="M39 367v366h55v-381q6 -135 104 -229t234 -94q139 0 238.5 100t99.5 240v364h55v-405q0 -36 -13.5 -77t-27.5 -64l-14 -23q-53 -88 -142.5 -139.5t-195.5 -51.5q-163 0 -278 115.5t-115 278.5zM319 858l117 125l119 -125l-41 -37l-78 78l-76 -78z" />
<glyph unicode="&#xfc;" d="M39 367v366h55v-381q6 -135 104 -229t234 -94q139 0 238.5 100t99.5 240v364h55v-405q0 -36 -13.5 -77t-27.5 -64l-14 -23q-53 -88 -142.5 -139.5t-195.5 -51.5q-163 0 -278 115.5t-115 278.5zM326 866q0 23 28 29q29 0 29 -29q0 -10 -8 -18q-4 -6 -21 -10q-22 0 -28 28z M492 866q0 23 28 29q29 0 29 -29q0 -6 -8 -18q-6 -6 -21 -10q-22 0 -28 28z" />
<glyph unicode="&#x2c6;" horiz-adv-x="331" d="M53 1110l117 125l119 -125l-41 -37l-78 78l-76 -78z" />
<glyph unicode="&#x2dc;" horiz-adv-x="612" d="M33 1145q75 72 166 72q22 0 55 -11l59 -26l52 -25l28 -8l29 -2q65 0 119 51l37 -31q-67 -67 -152 -67q-41 0 -59 6l-62 29l-39 20q-27 16 -67 16q-43 0 -84 -18l-27 -16l-25 -23z" />
<glyph unicode="&#x2000;" horiz-adv-x="736" />
<glyph unicode="&#x2001;" horiz-adv-x="1473" />
<glyph unicode="&#x2002;" horiz-adv-x="736" />
<glyph unicode="&#x2003;" horiz-adv-x="1473" />
<glyph unicode="&#x2004;" horiz-adv-x="491" />
<glyph unicode="&#x2005;" horiz-adv-x="368" />
<glyph unicode="&#x2006;" horiz-adv-x="245" />
<glyph unicode="&#x2007;" horiz-adv-x="245" />
<glyph unicode="&#x2008;" horiz-adv-x="184" />
<glyph unicode="&#x2009;" horiz-adv-x="294" />
<glyph unicode="&#x200a;" horiz-adv-x="81" />
<glyph unicode="&#x2010;" horiz-adv-x="444" d="M33 500v69h379v-69h-379z" />
<glyph unicode="&#x2011;" horiz-adv-x="444" d="M33 500v69h379v-69h-379z" />
<glyph unicode="&#x2012;" horiz-adv-x="444" d="M33 500v69h379v-69h-379z" />
<glyph unicode="&#x2013;" horiz-adv-x="473" d="M45 541v55h383v-55h-383z" />
<glyph unicode="&#x2014;" horiz-adv-x="550" d="M39 541v43h467v-43h-467z" />
<glyph unicode="&#x2018;" horiz-adv-x="303" d="M51 973l170 278l21 -12l-133 -291z" />
<glyph unicode="&#x2019;" horiz-adv-x="276" d="M33 971l135 291l57 -27l-174 -277z" />
<glyph unicode="&#x201a;" horiz-adv-x="264" d="M29 -123l135 291l57 -27l-174 -276z" />
<glyph unicode="&#x201c;" horiz-adv-x="376" d="M37 969l170 278l20 -12l-133 -291zM160 969l170 278l20 -12l-133 -291z" />
<glyph unicode="&#x201d;" horiz-adv-x="399" d="M49 973l131 291l60 -25l-172 -278zM172 973l131 291l59 -25l-172 -278z" />
<glyph unicode="&#x201e;" horiz-adv-x="364" d="M29 -141l135 291l57 -27l-174 -277zM133 -141l135 291l58 -27l-174 -277z" />
<glyph unicode="&#x2022;" horiz-adv-x="276" d="M45 680q0 65 88 86q88 0 88 -86q0 -32 -24 -62q-23 -23 -64 -26q-73 0 -88 88z" />
<glyph unicode="&#x202f;" horiz-adv-x="294" />
<glyph unicode="&#x205f;" horiz-adv-x="368" />
<glyph unicode="&#x25fc;" horiz-adv-x="727" d="M0 0v727h727v-727h-727z" />
</font>
</defs>
</svg>
